# xmcd
#
# Track frame offsets:
#	150
#	12729
#	26744
#	43010
#	55075
#	73970
#	86991
#	99709
#	112154
#	127158
#	141856
#	157003
#	176076
#	189756
#	206255
#	219747
#	233205
#	245490
#	257038
#	274996
#	288399
#
# Disc length: 4079 seconds
#
# Revision: 1
# Processed by: cddbd v1.5.1PL0 Copyright (c) Steve Scherf et al.
# Submitted via: audiograbber 1.83.01
#
DISCID=500fed15
DTITLE=Various Artist - The Ultimate Country Collection Disc 1
DYEAR=2004
DGENRE=Country
TTITLE0=Johnny Cash - I Walk The Line
TTITLE1=Glen Campbell - Wichita Lineman
TTITLE2=Shania Twain - You're Still The One
TTITLE3=Dolly Parton - Jolene
TTITLE4=Leann Rimes - How Do I Live
TTITLE5=Kenny Rogers and The First Edition - Ruby Don't Take Your Love To Town
TTITLE6=Roy Orbison - Crying
TTITLE7=Patsy Cline - Crazy
TTITLE8=Olivia Newton - John - Take Me Home Country Road
TTITLE9=Shelby Lynne - Leavin'
TTITLE10=Mary Chapin Carpenter - Passionate Kisses
TTITLE11=Nanci Griffith - From A Distance
TTITLE12=Jimmy Dean - Big Bad John
TTITLE13=The Charlie Daniels Band - The Devil Went Down To Georgia
TTITLE14=Faron Young - It's Four In The Morning
TTITLE15=Charlie Rich - Behind Closed Doors
TTITLE16=Tammy Wynette - Stand By Your Man
TTITLE17=Crystal Gayle - Don't It Make My Brown Eyes Blue
TTITLE18=Lee Greenwood - Wind Beneath My Wings
TTITLE19=Lynn Anderson - Rose Garden
TTITLE20=The Judds - Love Can Build A Bridge
EXTD=
EXTT0=
EXTT1=
EXTT2=
EXTT3=
EXTT4=
EXTT5=
EXTT6=
EXTT7=
EXTT8=
EXTT9=
EXTT10=
EXTT11=
EXTT12=
EXTT13=
EXTT14=
EXTT15=
EXTT16=
EXTT17=
EXTT18=
EXTT19=
EXTT20=
PLAYORDER=
